<svg width="53" height="95" viewBox="0 0 53 95" fill="none" xmlns="http://www.w3.org/2000/svg">
<g id="_&#216;&#163;&#226;&#128;&#152;&#216;&#163;&#194;&#171;&#216;&#163;&#194;&#174;&#216;&#163;&#194;&#169;_1" clip-path="url(#clip0_342_10648)">
<path id="Vector" d="M45.7628 18.9744H7.23657V37.1737H45.7628V18.9744Z" fill="#B8833B"/>
<path id="Vector_2" d="M45.7628 39.7974H7.23657V57.9967H45.7628V39.7974Z" fill="#B8833B"/>
<path id="Vector_3" d="M45.7628 60.6204H7.23657V65.9366H45.7628V60.6204Z" fill="#B8833B"/>
<path id="Vector_4" d="M25.7672 0.160926L8.35015 8.20404C7.67114 8.51729 7.23657 9.19721 7.23657 9.94503V16.3504H45.7637V9.94503C45.7637 9.19721 45.3291 8.5182 44.6501 8.20404L27.233 0.160926C26.7686 -0.0536419 26.2326 -0.0536419 25.7682 0.160926H25.7672Z" fill="#B8833B"/>
<path id="Vector_5" d="M45.7637 65.9363L26.5006 74.8314L7.23657 65.9363H45.7637Z" fill="#B8833B"/>
<path id="Vector_6" d="M31.2311 66.5096H21.7702C21.1577 66.5096 20.6611 67.0061 20.6611 67.6186V76.8984C20.6611 77.5109 21.1577 78.0075 21.7702 78.0075H31.2311C31.8436 78.0075 32.3401 77.5109 32.3401 76.8984V67.6186C32.3401 67.0061 31.8436 66.5096 31.2311 66.5096Z" fill="#B8833B"/>
<path id="Vector_7" d="M11.1993 60.6204H7.23657V91.4674H11.1993V60.6204Z" fill="#B8833B"/>
<path id="Vector_8" d="M45.7635 60.6204H41.8008V91.4674H45.7635V60.6204Z" fill="#B8833B"/>
<path id="Vector_9" d="M53 93.2059V90.4636C53 89.9235 52.5622 89.4858 52.0222 89.4858H0.977776C0.437763 89.4858 -7.62939e-06 89.9235 -7.62939e-06 90.4636V93.2059C-7.62939e-06 93.7459 0.437763 94.1836 0.977776 94.1836H52.0222C52.5622 94.1836 53 93.7459 53 93.2059Z" fill="#B8833B"/>
</g>
<defs>
<clipPath id="clip0_342_10648">
<rect width="53" height="94.1834" fill="white"/>
</clipPath>
</defs>
</svg>
