<svg width="22" height="23" viewBox="0 0 22 23" fill="none" xmlns="http://www.w3.org/2000/svg">
<path id="Vector" d="M3.3258 22.801H17.6836C18.204 22.801 18.6251 22.3799 18.6251 21.8595V18.8501H20.3738C20.8917 18.8501 21.3153 18.4358 21.3153 17.9086V1.536C21.3153 1.00877 20.8917 0.594507 20.3738 0.594507H8.52998C7.56021 0.594507 6.67504 0.961703 6.01604 1.56427C5.9126 1.43245 5.80894 1.30063 5.68665 1.17829C5.0557 0.547444 4.21787 0.199097 3.3235 0.199097C1.49683 0.199097 0 1.6961 0 3.53202V17.8804C0 17.8841 0.00206871 17.8872 0.00206871 17.8909V19.4773C0.00206871 21.3059 1.48795 22.801 3.3258 22.801ZM9.48067 4.36048H16.6078C17.1257 4.36048 17.5493 4.78416 17.5493 5.30197C17.5493 5.81984 17.1257 6.24346 16.6078 6.24346H9.48067C8.96303 6.24346 8.53917 5.81984 8.53917 5.30197C8.53917 4.78416 8.96303 4.36048 9.48067 4.36048ZM9.48067 8.78551H16.6078C17.1257 8.78551 17.5493 9.19976 17.5493 9.727C17.5493 10.2448 17.1257 10.6685 16.6078 10.6685H9.48067C8.96303 10.6685 8.53917 10.2448 8.53917 9.727C8.53917 9.19976 8.96303 8.78551 9.48067 8.78551ZM9.48067 13.2105H13.049C13.5668 13.2105 13.9905 13.6248 13.9905 14.152C13.9905 14.6698 13.5668 15.0935 13.049 15.0935H9.48067C8.96303 15.0935 8.53917 14.6698 8.53917 14.152C8.53917 13.6248 8.96303 13.2105 9.48067 13.2105ZM5.71722 18.8548H16.7421V20.918H3.3258C2.5306 20.918 1.88505 20.2671 1.88505 19.4773V17.8858C1.88505 17.0914 2.53141 16.445 3.3258 16.445C4.02525 16.445 4.61 16.9393 4.74585 17.613C4.75068 17.6372 4.75022 17.6629 4.75344 17.6876C4.87824 18.5133 5.22955 18.8548 5.71722 18.8548ZM1.88299 3.53202C1.88299 2.73171 2.53256 2.08208 3.3235 2.08208C4.14173 2.08208 4.7732 2.74534 4.7732 3.53202V14.8864C3.90477 14.4797 2.78886 14.4518 1.88299 14.8864V3.53202Z" fill="#98733B"/>
</svg>
