<svg width="82" height="53" viewBox="0 0 82 53" fill="none" xmlns="http://www.w3.org/2000/svg">
<g id="Layer_1" clip-path="url(#clip0_342_10634)">
<path id="Vector" d="M81.3851 44.0791L60.9368 3.18324C59.961 1.23246 57.9667 0 55.7855 0H26.2147C24.0335 0 22.0393 1.23246 21.0635 3.18324L0.61594 44.0791C-1.29876 47.9085 1.48596 52.4136 5.76718 52.4136H31.0306L32.8706 37.67C33.0199 36.4744 34.8337 35.5363 36.9264 35.5363H45.0747C47.1673 35.5363 48.9812 36.4744 49.1304 37.67L50.9705 52.4136H76.2339C80.5151 52.4136 83.299 47.9085 81.3851 44.0791ZM37.2396 2.65352C37.2716 2.39522 38.0965 2.18858 39.0813 2.18858H42.9173C43.9029 2.18858 44.727 2.39522 44.759 2.65352L45.1592 5.85972C45.1993 6.18198 44.3195 6.44766 43.192 6.44766H38.805C37.6783 6.44766 36.7976 6.18198 36.8378 5.85972L37.238 2.65352H37.2396ZM36.4188 9.23074C36.4663 8.8478 37.4741 8.54358 38.6705 8.54358H43.3281C44.5245 8.54358 45.5323 8.8478 45.5798 9.23074L46.1883 14.1032C46.2506 14.605 45.1583 15.0216 43.7471 15.0216H38.2515C36.8403 15.0216 35.748 14.605 35.8103 14.1032L36.4188 9.23074ZM44.677 29.3929H37.3232C35.434 29.3929 33.9957 28.65 34.1072 27.7603L35.1404 19.4807C35.2183 18.8559 36.5139 18.3623 38.0366 18.3623H43.9644C45.4863 18.3623 46.7828 18.8567 46.8607 19.4807L47.8939 27.7603C48.0046 28.65 46.5663 29.3929 44.6778 29.3929H44.677Z" fill="#B8833B"/>
</g>
<defs>
<clipPath id="clip0_342_10634">
<rect width="82" height="52.4136" fill="white"/>
</clipPath>
</defs>
</svg>
