<svg width="137" height="136" viewBox="0 0 137 136" fill="none" xmlns="http://www.w3.org/2000/svg">
<g id="Group 1000007152">
<rect id="Rectangle 34624206" width="137" height="136" rx="17" fill="white"/>
<path id="Vector" fill-rule="evenodd" clip-rule="evenodd" d="M97.6037 79.8463L92.6208 78.5112C93.1146 77.6547 93.4471 76.6873 93.5705 75.6444V75.6394C93.8124 73.5813 93.1977 71.6189 92.0062 70.1099H92.0037C91.6182 69.6212 91.1723 69.1778 90.6736 68.7974C90.6887 68.7899 90.7038 68.7823 90.7189 68.7773C91.1471 69.0368 91.6031 69.2559 92.0843 69.4297C92.6082 69.6161 93.1599 69.7497 93.7393 69.8177H93.7444H93.7494C95.8025 70.0595 97.7649 69.4423 99.2789 68.2508C99.5837 68.0089 99.8709 67.747 100.135 67.4623L100.773 67.6336C99.1277 68.1802 97.717 69.2861 96.79 70.7472C96.4978 71.2082 96.2534 71.707 96.0645 72.231C95.8781 72.7525 95.7446 73.3067 95.6765 73.8861C95.4095 76.1482 96.1778 78.2971 97.6062 79.8514L97.6037 79.8463ZM106.121 93.112L101.138 91.7769C101.632 90.9204 101.964 89.9531 102.088 88.9101V88.9051V88.9001C102.33 86.8419 101.715 84.8795 100.523 83.3731H100.521C99.6416 82.2596 98.4526 81.3931 97.0646 80.917L98.4048 81.2772C98.6819 81.3477 98.9766 81.3175 99.2336 81.189C99.6618 81.4485 100.118 81.6702 100.599 81.8415C101.12 82.0279 101.675 82.1589 102.254 82.2294H102.259C104.312 82.4713 106.275 81.8541 107.788 80.6625C107.841 80.6222 107.892 80.5794 107.945 80.5366L109.282 80.8943C107.64 81.4409 106.227 82.5468 105.3 84.0079C105.007 84.4689 104.763 84.9677 104.574 85.4917C104.388 86.0131 104.257 86.5674 104.186 87.1468C103.919 89.4089 104.687 91.5552 106.116 93.112H106.121ZM110.912 94.3263C114.391 94.7369 117.545 92.248 117.956 88.7691C118.366 85.2902 115.877 82.1362 112.398 81.7256C108.92 81.315 105.766 83.8039 105.355 87.2828C104.944 90.7617 107.433 93.9156 110.912 94.3263ZM89.0865 93.112L84.1037 91.7769C84.5974 90.9204 84.9299 89.9531 85.0534 88.9101V88.9051V88.9001C85.2952 86.8419 84.6805 84.8795 83.489 83.3731H83.4865C82.6073 82.2596 81.4183 81.3931 80.0302 80.917L81.3704 81.2772C81.6475 81.3477 81.9448 81.3175 82.1992 81.189C82.6275 81.4485 83.0834 81.6702 83.5646 81.8415C84.0886 82.0279 84.6403 82.1589 85.2197 82.2294H85.2247C87.2778 82.4713 89.2402 81.8541 90.7516 80.6625C90.8046 80.6222 90.8549 80.5794 90.9078 80.5366L92.2455 80.8943C90.603 81.4409 89.1898 82.5468 88.2627 84.0079C87.9705 84.4689 87.7262 84.9677 87.5372 85.4917C87.3508 86.0131 87.2173 86.5674 87.1493 87.1468C86.8823 89.4089 87.6506 91.5552 89.0789 93.112H89.0865ZM93.8779 94.3263C97.3568 94.7369 100.511 92.248 100.921 88.7691C101.332 85.2902 98.8431 82.1362 95.3642 81.7256C91.8853 81.315 88.7313 83.8039 88.3207 87.2828C87.9101 90.7617 90.399 93.9156 93.8779 94.3263ZM72.0522 93.112L23.3247 80.0554V80.0453C20.536 79.1133 18.6845 76.3221 19.0447 73.2865C19.4553 69.8076 22.6093 67.3187 26.0882 67.7293C26.7129 67.8024 27.3075 67.9661 27.8566 68.2029L75.2187 80.8943C73.5762 81.4409 72.163 82.5468 71.236 84.0079C70.9438 84.4689 70.6994 84.9677 70.5105 85.4917C70.324 86.0131 70.1905 86.5674 70.1225 87.1468C69.8555 89.4089 70.6238 91.5552 72.0522 93.112ZM76.8435 94.3263C80.3225 94.7369 83.4764 92.248 83.887 88.7691C84.2976 85.2902 81.8087 82.1362 78.3298 81.7256C74.8509 81.315 71.697 83.8039 71.2864 87.2828C70.8757 90.7617 73.3646 93.9156 76.8435 94.3263ZM80.5693 79.8463C79.141 78.2895 78.3727 76.1432 78.6397 73.881C78.7077 73.3016 78.8387 72.7474 79.0276 72.2234C79.2166 71.6995 79.4609 71.2032 79.7531 70.7397C80.6802 69.2786 82.0909 68.1727 83.7359 67.626L36.3738 54.9347C35.8246 54.6979 35.2301 54.5341 34.6054 54.4611C31.1264 54.0505 27.9725 56.5394 27.5619 60.0183C27.2042 63.0563 29.0557 65.845 31.8469 66.7771V66.7872L80.5719 79.8438L80.5693 79.8463ZM85.3607 81.0605C88.8396 81.4712 91.9936 78.9823 92.4042 75.5034C92.8148 72.0244 90.3259 68.8705 86.847 68.4599C83.3681 68.0493 80.2141 70.5382 79.8035 74.0171C79.3929 77.496 81.8818 80.6499 85.3607 81.0605ZM89.0865 67.4321C87.6582 65.8752 86.8898 63.729 87.1569 61.4643C87.2249 60.8849 87.3559 60.3307 87.5448 59.8067C87.7337 59.2827 87.9781 58.7864 88.2703 58.3229C89.1973 56.8618 90.6081 55.7559 92.253 55.2093L44.8935 42.5179C44.3443 42.2811 43.7498 42.1174 43.125 42.0443C39.6461 41.6337 36.4922 44.1226 36.0816 47.6015C35.7239 50.6396 37.5754 53.4282 40.3666 54.3603V54.3704L89.0915 67.427L89.0865 67.4321ZM93.8779 68.6463C97.3568 69.0569 100.511 66.568 100.921 63.0891C101.332 59.6102 98.8431 56.4562 95.3642 56.0456C91.8853 55.635 88.7313 58.1239 88.3207 61.6028C87.9101 65.0817 90.399 68.2357 93.8779 68.6463ZM102.395 81.0605C105.874 81.4712 109.028 78.9823 109.439 75.5034C109.849 72.0244 107.36 68.8705 103.881 68.4599C100.402 68.0493 97.2485 70.5382 96.8379 74.0171C96.4272 77.496 98.9161 80.6499 102.395 81.0605Z" fill="#B8833B"/>
</g>
</svg>
